# xmcd CD database file
#
# Track frame offsets:
#	150
#	20810
#	38522
#	58666
#
# Disc length: 1168 seconds
#
# Revision: 0
# Processed by: cddbd v1.5.2PL0 Copyright (c) Steve Scherf et al.
# Submitted via: CDex 1.70beta2
#
DISCID=2c048e04
DTITLE=鉄腕トカゲ探知機 - 月光ナッツ
DYEAR=2009
DGENRE=東方アレンジ
TTITLE0=心臓人間
TTITLE1=月世界戦士
TTITLE2=ルナティック人間状態
TTITLE3=強腕月面探査艇
EXTD=YEAR: 2009
EXTT0=
EXTT1=
EXTT2=
EXTT3=
PLAYORDER=
